<svg id="Aria_-_Vector" data-name="Aria - Vector" xmlns="http://www.w3.org/2000/svg" viewBox="0 0 710.05 713.39"><defs><style>.cls-1{fill:#cca353;}.cls-2{fill:#f7f4f0;}.cls-3{fill:#963c3c;}.cls-4{fill:#373d31;}.cls-5{fill:#b1b2aa;}</style></defs><path class="cls-1" d="M265.76,246.08a176.93,176.93,0,0,1-20.95,10.26v91.77h63.9L283.26,233.66A113.85,113.85,0,0,1,265.76,246.08Z"/><path class="cls-1" d="M185,105.39A85.32,85.32,0,0,0,169.38,119a70.67,70.67,0,0,0-9.8,14.11c-1,2-2,3.91-2.88,5.78-.82,1.7-1.59,3.36-2.31,5l-1.1,2.39c-15.17,33.74-27.86,92.41-32.57,115.86,21.58-2.18,72.64-8,108.1-17.86V130.61q0-7.13.32-14.69A84.77,84.77,0,0,1,231,101.45a46.94,46.94,0,0,1,5-13.07c.27-.5.57-1,.87-1.46a182.67,182.67,0,0,0-28,7A98.4,98.4,0,0,0,185,105.39Z"/><path class="cls-1" d="M111.79,278.42h0l-10,.83,1.8-9.87v0c.7-3.83,14.63-77.86,33.19-123.16q3.15-7.56,6.69-14.31a133.8,133.8,0,0,1,15.06-23,92.46,92.46,0,0,1,32-24.55c1-.49,2.07-1,3.13-1.44H103.85A20.18,20.18,0,0,0,83.67,103V327.94a20.18,20.18,0,0,0,20.18,20.17h125v-88C181.91,272.43,115.44,278.12,111.79,278.42Z"/><path class="cls-1" d="M305.29,149.73q3-20,3-47.2V82.89H290.09c-5.23,0-10.24.09-15.07.25-2,.28-3.83.62-5.59,1a32.73,32.73,0,0,0-13.93,6.59,27,27,0,0,0-8.1,12.64q-2.6,8-2.59,20.09V238.63q6-2.59,13.17-6.16a69.34,69.34,0,0,0,14.15-9.61,83.28,83.28,0,0,0,13.61-15.45,96.41,96.41,0,0,0,11.56-23.55A189.62,189.62,0,0,0,305.29,149.73Z"/><path class="cls-1" d="M326.14,82.85h-1.38v23.3a423.73,423.73,0,0,1-4.09,47.51q-4.1,28.53-13.46,48c-1.18,2.45-2.42,4.81-3.74,7.09a96.33,96.33,0,0,1-7.25,11.06q.87,3.46,2.7,11.78t4.43,19.44q2.59,11.13,5.62,24.2t6,26.14q3,13.07,5.83,25.16t5,21.5v.06h.31a20.17,20.17,0,0,0,20.18-20.17V103A20.17,20.17,0,0,0,326.14,82.85Z"/><path class="cls-2" d="M320.85,326.55Q318,314.46,315,301.39t-6-26.14q-3-13.08-5.62-24.2t-4.43-19.44q-1.83-8.33-2.7-11.78a96.33,96.33,0,0,0,7.25-11.06c1.32-2.28,2.56-4.64,3.74-7.09q9.36-19.49,13.46-48a423.73,423.73,0,0,0,4.09-47.51V82.85H193.62c-1.06.47-2.11,1-3.13,1.44a92.46,92.46,0,0,0-32,24.55,133.8,133.8,0,0,0-15.06,23q-3.52,6.75-6.69,14.31c-18.56,45.3-32.49,119.33-33.19,123.16v0l-1.8,9.87,10-.83h0c3.65-.3,70.12-6,117-18.35v88h16V256.34a176.93,176.93,0,0,0,20.95-10.26,113.85,113.85,0,0,0,17.5-12.42l25.45,114.45h17.12v-.06Q323.66,338.65,320.85,326.55ZM236,88.38a46.94,46.94,0,0,0-5,13.07,84.77,84.77,0,0,0-1.84,14.47q-.31,7.56-.32,14.69V244.2c-35.46,9.87-86.52,15.68-108.1,17.86,4.71-23.45,17.4-82.12,32.57-115.86l1.1-2.39c.72-1.6,1.49-3.26,2.31-5,.9-1.87,1.85-3.79,2.88-5.78a70.67,70.67,0,0,1,9.8-14.11A85.32,85.32,0,0,1,185,105.39a98.4,98.4,0,0,1,23.79-11.52,182.67,182.67,0,0,1,28-7C236.52,87.4,236.22,87.88,236,88.38Zm36.18,134.48A69.34,69.34,0,0,1,258,232.47q-7.13,3.57-13.17,6.16V123.48q0-12.09,2.59-20.09a27,27,0,0,1,8.1-12.64,32.73,32.73,0,0,1,13.93-6.59c1.76-.4,3.63-.74,5.59-1,4.83-.16,9.84-.25,15.07-.25h18.23v19.64q0,27.21-3,47.2a189.62,189.62,0,0,1-8,34.13,96.41,96.41,0,0,1-11.56,23.55A83.28,83.28,0,0,1,272.13,222.86Z"/><path class="cls-3" d="M444.29,246.08a177.1,177.1,0,0,0,21,10.26v91.77H401.34l25.45-114.45A114.34,114.34,0,0,0,444.29,246.08Z"/><path class="cls-3" d="M525.06,105.39A85.23,85.23,0,0,1,540.67,119a70.67,70.67,0,0,1,9.8,14.11c1,2,2,3.91,2.88,5.78.82,1.7,1.59,3.36,2.31,5,.37.78.73,1.58,1.1,2.39,15.17,33.74,27.86,92.41,32.57,115.86-21.58-2.18-72.63-8-108.09-17.86V130.61q0-7.13-.33-14.69a83.78,83.78,0,0,0-1.84-14.47,46.91,46.91,0,0,0-5-13.07c-.28-.5-.57-1-.88-1.46a182.67,182.67,0,0,1,28,7A98.67,98.67,0,0,1,525.06,105.39Z"/><path class="cls-3" d="M598.26,278.42h0l10,.83-1.8-9.87v0c-.69-3.83-14.63-77.86-33.18-123.16q-3.16-7.56-6.7-14.31a134.36,134.36,0,0,0-15.05-23,92.65,92.65,0,0,0-32-24.55c-1-.49-2.08-1-3.14-1.44h89.78A20.17,20.17,0,0,1,626.38,103V327.94a20.17,20.17,0,0,1-20.17,20.17h-125v-88C528.14,272.43,594.62,278.12,598.26,278.42Z"/><path class="cls-3" d="M404.76,149.73q-3-20-3-47.2V82.89H420q7.83,0,15.06.25c2,.28,3.83.62,5.59,1a32.67,32.67,0,0,1,13.93,6.59,26.91,26.91,0,0,1,8.11,12.64q2.58,8,2.59,20.09V238.63q-6-2.59-13.18-6.16a69.61,69.61,0,0,1-14.15-9.61,83.65,83.65,0,0,1-13.61-15.45,97.13,97.13,0,0,1-11.56-23.55A190.48,190.48,0,0,1,404.76,149.73Z"/><path class="cls-3" d="M383.91,82.85h1.38v23.3a428.51,428.51,0,0,0,4.09,47.51q4.1,28.53,13.46,48,1.77,3.67,3.74,7.09a97.68,97.68,0,0,0,7.25,11.06q-.85,3.46-2.7,11.78t-4.43,19.44q-2.58,11.13-5.61,24.2t-6,26.14q-3,13.07-5.84,25.16t-5,21.5l0,.06h-.31a20.17,20.17,0,0,1-20.17-20.17V103A20.17,20.17,0,0,1,383.91,82.85Z"/><path class="cls-2" d="M384.24,348.05l0,.06h17.12l25.45-114.45a114.34,114.34,0,0,0,17.5,12.42,177.1,177.1,0,0,0,21,10.26v91.77h16v-88c46.9,12.36,113.38,18.05,117,18.35h0l10,.83-1.8-9.87v0c-.69-3.83-14.63-77.86-33.18-123.16q-3.16-7.56-6.7-14.31a134.36,134.36,0,0,0-15.05-23,92.65,92.65,0,0,0-32-24.55c-1-.49-2.08-1-3.14-1.44H385.29v23.3a428.51,428.51,0,0,0,4.09,47.51q4.1,28.53,13.46,48,1.77,3.67,3.74,7.09a97.68,97.68,0,0,0,7.25,11.06q-.85,3.46-2.7,11.78t-4.43,19.44q-2.58,11.13-5.61,24.2t-6,26.14q-3,13.07-5.84,25.16T384.24,348.05Zm89-261.13a182.67,182.67,0,0,1,28,7,98.67,98.67,0,0,1,23.8,11.52A85.23,85.23,0,0,1,540.67,119a70.67,70.67,0,0,1,9.8,14.11c1,2,2,3.91,2.88,5.78.82,1.7,1.59,3.36,2.31,5,.37.78.73,1.58,1.1,2.39,15.17,33.74,27.86,92.41,32.57,115.86-21.58-2.18-72.63-8-108.09-17.86V130.61q0-7.13-.33-14.69a83.78,83.78,0,0,0-1.84-14.47,46.91,46.91,0,0,0-5-13.07C473.83,87.88,473.54,87.4,473.23,86.92ZM424.31,207.41a97.13,97.13,0,0,1-11.56-23.55,190.48,190.48,0,0,1-8-34.13q-3-20-3-47.2V82.89H420q7.83,0,15.06.25c2,.28,3.83.62,5.59,1a32.67,32.67,0,0,1,13.93,6.59,26.91,26.91,0,0,1,8.11,12.64q2.58,8,2.59,20.09V238.63q-6-2.59-13.18-6.16a69.61,69.61,0,0,1-14.15-9.61A83.65,83.65,0,0,1,424.31,207.41Z"/><path class="cls-4" d="M265.76,467.31a176.93,176.93,0,0,0-20.95-10.26V365.28h63.9L283.26,479.73A113.85,113.85,0,0,0,265.76,467.31Z"/><path class="cls-4" d="M185,608a85.32,85.32,0,0,1-15.62-13.57,70.67,70.67,0,0,1-9.8-14.11c-1-2-2-3.91-2.88-5.78-.82-1.7-1.59-3.36-2.31-5l-1.1-2.39c-15.17-33.73-27.86-92.41-32.57-115.86,21.58,2.18,72.64,8,108.1,17.86V582.78q0,7.13.32,14.69A84.77,84.77,0,0,0,231,611.94,46.94,46.94,0,0,0,236,625c.27.5.57,1,.87,1.46a182.67,182.67,0,0,1-28-7A98.4,98.4,0,0,1,185,608Z"/><path class="cls-4" d="M111.79,435h0l-10-.83,1.8,9.87v0c.7,3.83,14.63,77.86,33.19,123.16q3.15,7.56,6.69,14.31a133.41,133.41,0,0,0,15.06,23,92.46,92.46,0,0,0,32,24.55c1,.49,2.07,1,3.13,1.44H103.85a20.18,20.18,0,0,1-20.18-20.17V385.45a20.18,20.18,0,0,1,20.18-20.17h125v88C181.91,441,115.44,435.27,111.79,435Z"/><path class="cls-4" d="M305.29,563.66q3,20,3,47.2V630.5H290.09c-5.23,0-10.24-.08-15.07-.25-2-.28-3.83-.62-5.59-1a32.73,32.73,0,0,1-13.93-6.59A27,27,0,0,1,247.4,610q-2.6-8-2.59-20.09V474.76q6,2.6,13.17,6.16a69.34,69.34,0,0,1,14.15,9.61A83.28,83.28,0,0,1,285.74,506a96.59,96.59,0,0,1,11.56,23.55A189.62,189.62,0,0,1,305.29,563.66Z"/><path class="cls-4" d="M326.14,630.54h-1.38v-23.3a423.32,423.32,0,0,0-4.09-47.5q-4.1-28.54-13.46-48c-1.18-2.45-2.42-4.81-3.74-7.09a96.33,96.33,0,0,0-7.25-11.06q.87-3.46,2.7-11.78t4.43-19.44q2.59-11.13,5.62-24.19T315,412q3-13.08,5.83-25.17t5-21.5v-.06h.31a20.17,20.17,0,0,1,20.18,20.17V610.37A20.17,20.17,0,0,1,326.14,630.54Z"/><path class="cls-2" d="M325.82,365.34v-.06H308.71L283.26,479.73a113.85,113.85,0,0,0-17.5-12.42,176.93,176.93,0,0,0-20.95-10.26V365.28h-16v88C181.91,441,115.44,435.27,111.79,435h0l-10-.83,1.8,9.87v0c.7,3.83,14.63,77.86,33.19,123.16q3.15,7.56,6.69,14.31a133.41,133.41,0,0,0,15.06,23,92.46,92.46,0,0,0,32,24.55c1,.49,2.07,1,3.13,1.44H324.76v-23.3a423.32,423.32,0,0,0-4.09-47.5q-4.1-28.54-13.46-48c-1.18-2.45-2.42-4.81-3.74-7.09a96.33,96.33,0,0,0-7.25-11.06q.87-3.46,2.7-11.78t4.43-19.44q2.59-11.13,5.62-24.19T315,412q3-13.08,5.83-25.17T325.82,365.34Zm-89,261.13a182.67,182.67,0,0,1-28-7A98.4,98.4,0,0,1,185,608a85.32,85.32,0,0,1-15.62-13.57,70.67,70.67,0,0,1-9.8-14.11c-1-2-2-3.91-2.88-5.78-.82-1.7-1.59-3.36-2.31-5l-1.1-2.39c-15.17-33.73-27.86-92.41-32.57-115.86,21.58,2.18,72.64,8,108.1,17.86V582.78q0,7.13.32,14.69A84.77,84.77,0,0,0,231,611.94,46.94,46.94,0,0,0,236,625C236.22,625.51,236.52,626,236.82,626.47ZM285.74,506a96.59,96.59,0,0,1,11.56,23.55,189.62,189.62,0,0,1,8,34.13q3,20,3,47.2V630.5H290.09c-5.23,0-10.24-.08-15.07-.25-2-.28-3.83-.62-5.59-1a32.73,32.73,0,0,1-13.93-6.59A27,27,0,0,1,247.4,610q-2.6-8-2.59-20.09V474.76q6,2.6,13.17,6.16a69.34,69.34,0,0,1,14.15,9.61A83.28,83.28,0,0,1,285.74,506Z"/><path class="cls-5" d="M444.29,467.31a177.1,177.1,0,0,1,21-10.26V365.28H401.34l25.45,114.45A114.34,114.34,0,0,1,444.29,467.31Z"/><path class="cls-5" d="M525.06,608a85.23,85.23,0,0,0,15.61-13.57,70.67,70.67,0,0,0,9.8-14.11c1-2,2-3.91,2.88-5.78.82-1.7,1.59-3.36,2.31-5,.37-.78.73-1.58,1.1-2.39,15.17-33.73,27.86-92.41,32.57-115.86-21.58,2.18-72.63,8-108.09,17.86V582.78q0,7.13-.33,14.69a83.78,83.78,0,0,1-1.84,14.47,46.91,46.91,0,0,1-5,13.07c-.28.5-.57,1-.88,1.46a182.67,182.67,0,0,0,28-7A98.67,98.67,0,0,0,525.06,608Z"/><path class="cls-5" d="M598.26,435h0l10-.83-1.8,9.87v0c-.69,3.83-14.63,77.86-33.18,123.16q-3.16,7.56-6.7,14.31a134,134,0,0,1-15.05,23,92.65,92.65,0,0,1-32,24.55c-1,.49-2.08,1-3.14,1.44h89.78a20.17,20.17,0,0,0,20.17-20.17V385.45a20.17,20.17,0,0,0-20.17-20.17h-125v88C528.14,441,594.62,435.27,598.26,435Z"/><path class="cls-5" d="M404.76,563.66q-3,20-3,47.2V630.5H420q7.83,0,15.06-.25c2-.28,3.83-.62,5.59-1a32.67,32.67,0,0,0,13.93-6.59A26.91,26.91,0,0,0,462.66,610q2.58-8,2.59-20.09V474.76q-6,2.6-13.18,6.16a69.61,69.61,0,0,0-14.15,9.61A83.65,83.65,0,0,0,424.31,506a97.31,97.31,0,0,0-11.56,23.55A190.48,190.48,0,0,0,404.76,563.66Z"/><path class="cls-5" d="M383.91,630.54h1.38v-23.3a428.1,428.1,0,0,1,4.09-47.5q4.1-28.54,13.46-48,1.77-3.68,3.74-7.09a97.68,97.68,0,0,1,7.25-11.06q-.85-3.46-2.7-11.78t-4.43-19.44q-2.58-11.13-5.61-24.19T395,412q-3-13.08-5.84-25.17t-5-21.5l0-.06h-.31a20.17,20.17,0,0,0-20.17,20.17V610.37A20.17,20.17,0,0,0,383.91,630.54Z"/><path class="cls-2" d="M389.2,386.84Q392,398.93,395,412t6,26.14q3,13.07,5.61,24.19t4.43,19.44q1.85,8.33,2.7,11.78a97.68,97.68,0,0,0-7.25,11.06q-2,3.42-3.74,7.09-9.36,19.49-13.46,48a428.1,428.1,0,0,0-4.09,47.5v23.3H516.43c1.06-.47,2.11-.95,3.14-1.44a92.65,92.65,0,0,0,32-24.55,134,134,0,0,0,15.05-23q3.54-6.75,6.7-14.31c18.55-45.3,32.49-119.33,33.18-123.16v0l1.8-9.87-10,.83h0c-3.64.3-70.12,6-117,18.35v-88h-16v91.77a177.1,177.1,0,0,0-21,10.26,114.34,114.34,0,0,0-17.5,12.42L401.34,365.28H384.22l0,.06Q386.4,374.75,389.2,386.84ZM474.11,625a46.91,46.91,0,0,0,5-13.07,83.78,83.78,0,0,0,1.84-14.47q.33-7.56.33-14.69V469.19c35.46-9.87,86.51-15.68,108.09-17.86-4.71,23.45-17.4,82.13-32.57,115.86-.37.81-.73,1.61-1.1,2.39-.72,1.6-1.49,3.26-2.31,5-.9,1.87-1.85,3.79-2.88,5.78a70.67,70.67,0,0,1-9.8,14.11A85.23,85.23,0,0,1,525.06,608a98.67,98.67,0,0,1-23.8,11.52,182.67,182.67,0,0,1-28,7C473.54,626,473.83,625.51,474.11,625ZM437.92,490.53a69.61,69.61,0,0,1,14.15-9.61q7.13-3.57,13.18-6.16V589.91q0,12.09-2.59,20.09a26.91,26.91,0,0,1-8.11,12.64,32.67,32.67,0,0,1-13.93,6.59c-1.76.4-3.63.74-5.59,1q-7.23.25-15.06.25H401.73V610.86q0-27.21,3-47.2a190.48,190.48,0,0,1,8-34.13A97.31,97.31,0,0,1,424.31,506,83.65,83.65,0,0,1,437.92,490.53Z"/></svg>