<svg xmlns="http://www.w3.org/2000/svg" viewBox="0 0 1080.97 784.34"><defs><style>.cls-1{fill:#f2f2f2;}.cls-2,.cls-3{fill:#963c3c;}.cls-3,.cls-5,.cls-8{opacity:0.1;isolation:isolate;}.cls-4,.cls-8{fill:#373d31;}.cls-6{fill:#2f2e41;}.cls-7{fill:#9f616a;}.cls-9{fill:#b1b2aa;}.cls-10{fill:#cca353;}.cls-11{fill:#3f3d56;}.cls-12{fill:#973c3d;}</style></defs><g id="Capa_2" data-name="Capa 2"><g id="ef155387-c885-4ebf-8cb5-c452ea0af16e"><path class="cls-1" d="M388.6,215.94a105,105,0,0,1-148.45,2.8q-3.08-3-5.91-6.17L0,434.3l329.39,348,314-297.19Z"/><path class="cls-1" d="M312.78,226.18A91.63,91.63,0,0,0,379,198l-65.32-69-69.78,66.06A91.64,91.64,0,0,0,312.78,226.18Z"/><path class="cls-2" d="M827,327.1a164.83,164.83,0,0,1-164.66,165H662l-2.82,0c-4-.06-7.87-.26-11.76-.6A165,165,0,1,1,827,327.1Z"/><path class="cls-3" d="M757.59,267.39a163.87,163.87,0,0,0,19.89-59.07,165,165,0,0,0-278,96.59,164.39,164.39,0,0,0,99.93,45.56c3.89.34,7.8.54,11.76.6l2.82,0A164.73,164.73,0,0,0,757.59,267.39Z"/><rect class="cls-4" x="469.97" y="488.1" width="265" height="296"/><path class="cls-5" d="M819.84,388.7a165.14,165.14,0,0,1-115.61,96.4H741v296H496.55L633.72,543.51l31.43-54.44,2.29-4,104-180.18Z"/><polygon class="cls-4" points="805.47 306.92 943.22 545.51 1080.97 784.1 805.47 784.1 529.97 784.1 667.72 545.51 805.47 306.92"/><rect class="cls-6" x="36.97" y="782.1" width="1044" height="2"/><polygon class="cls-7" points="171.5 736.84 169.68 752.04 159.34 756.91 147.78 753.26 139.87 756.91 137.44 742.92 151.43 727.1 171.5 736.84"/><path class="cls-4" d="M164.2,748.39s9.44-11,9.59-5.49,20.83,24.35,20.83,24.35,32.25,9.74,7.3,15.82-79.7-11.56-81.52-15.21,15.21-31.63,17-29.2S148.39,749.61,164.2,748.39Z"/><path class="cls-4" d="M187.32,567.7s3.65,28.59,0,32.85-1.82,12.78,0,14-2.43,6.08-5.47,8.51-7.3,13.39-7.3,13.39-16.43,43.2-16.43,47.45-7.3,13.39-6.69,16.43-4.26,12.78-3.65,14.6-7.91,18.25-5.48,20.69,35.9,11,34.07,5.47-3-12.16-1.82-12.16,6.69-6.7,5.47-9.13,36.51-66.32,36.51-66.32Z"/><path class="cls-8" d="M164.2,748.39s9.44-11,9.59-5.49,20.83,24.35,20.83,24.35,32.25,9.74,7.3,15.82-79.7-11.56-81.52-15.21,15.21-31.63,17-29.2S148.39,749.61,164.2,748.39Z"/><path class="cls-8" d="M187.32,567.7s3.65,28.59,0,32.85-1.82,12.78,0,14-2.43,6.08-5.47,8.51-7.3,13.39-7.3,13.39-16.43,43.2-16.43,47.45-7.3,13.39-6.69,16.43-4.26,12.78-3.65,14.6-7.91,18.25-5.48,20.69,35.9,11,34.07,5.47-3-12.16-1.82-12.16,6.69-6.7,5.47-9.13,36.51-66.32,36.51-66.32Z"/><polygon class="cls-7" points="249.38 729.28 256.07 746.32 253.03 770.04 233.56 768.83 222.61 759.09 222.61 738.41 249.38 729.28"/><path class="cls-4" d="M245.73,750s6.69-21.91,10.34-15.82a96.65,96.65,0,0,1,6.09,12.17s29.81,19.47,37.72,19.47,15.21,9.73,4.86,13.38-89.43,8.52-90.65,0,1.22-35.9,4.87-32.85S241.47,756.05,245.73,750Z"/><path class="cls-7" d="M260.94,480.45s26.82,18.22,28,20.65,16.78,9.92,4,16-46.63-32.39-46.63-32.39Z"/><path class="cls-9" d="M247.55,445.16S267,482.88,263.37,484.1s-18.25,8.52-18.25,8.52l-6.69-38.33Z"/><path class="cls-5" d="M247.55,445.16S267,482.88,263.37,484.1s-18.25,8.52-18.25,8.52l-6.69-38.33Z"/><path class="cls-4" d="M246.34,476.8s4.26,31.63,2.43,38.33S250,622.2,247.55,627.68s-4.25,40.76-4.25,45,4.86,38.94,6.08,42,4.87,13.38,3,18.25S225.65,750,222,745.71s-.61-17.65-3.65-18.25-6.69-29.21-6.69-29.21L191.58,586.31s-37.72-93.69-29.2-102.82S246.34,476.8,246.34,476.8Z"/><circle class="cls-7" cx="223.83" cy="231" r="29.81"/><path class="cls-7" d="M234.78,255.34s-9.74,25.55-8.52,31-28.59-9.74-28.59-9.74,1.82-29.81,0-37.72S234.78,255.34,234.78,255.34Z"/><path class="cls-9" d="M153,421.8c.14,5.11.22,8.15.22,8.15s-1.82,28,1.22,37.11,3,15.82,4.87,21.9c.53,1.78,7.81,2.72,18,3.14,9.38.39,21.24.33,32.62.07,18.85-.44,36.42-1.45,39.38-2,6.69-1.22-1.22-11.56,1.22-17s-4.26-75.44-4.26-75.44S247,358.16,243.9,343s-14.6-39.55-17-42.59-.61-4.87,4.87-8.52,0-17.64,0-17.64c-10.35-8.52-36.51-9.73-36.51-9.73s-40.15,41.37-42.59,49.88c-1.47,5.15-.94,46.27-.29,78C152.6,404.31,152.86,414.93,153,421.8Z"/><path class="cls-7" d="M204.36,497.48s23.12,47.46,4.87,50.5-27.38-43.2-27.38-43.2Z"/><path class="cls-6" d="M251.7,215.89c1.06-5.11-2.85-9.89-7-13.1A51,51,0,0,0,213.4,192.1c-8,.05-16.21,2.16-22.24,7.38-7,6.1-10.24,15.87-9.65,25.16s4.63,18.09,10.07,25.64c2.62,3.62,6.82,7.37,11,5.79a10.25,10.25,0,0,0,4.06-3.44,62.46,62.46,0,0,0,7-10.71c1.5-2.9,2.79-6,4.91-8.45s5.31-4.36,8.55-3.92c2.67.37,5.29,2.25,7.84,1.37,2.84-1,3.53-4.61,3.75-7.61.25-3.28.08-7.08,1-10.19C240.64,213.66,251.21,218.34,251.7,215.89Z"/><path class="cls-5" d="M153,421.8c6.82,24.58,22.45,66,23.34,67.77.23.46.58,1.35,1,2.53,9.38.39,21.24.33,32.62.07-1.76-4.61-3.82-9.06-3.82-10.51,0-3-14.6-81.52-14.6-81.52s11.56-34.68,21.9-63.88-30.72-23.43-30.72-23.43c-21.9-5.47-25.86,4-25.86,4s-1.93,51.29-4.55,75.57c-.68,6.23-1.4,10.67-2.14,12C149.24,406.18,150.55,412.88,153,421.8Z"/><path class="cls-9" d="M191.58,293.06s28,11.56,17.65,40.76-21.91,63.89-21.91,63.89,14.6,78.48,14.6,81.52,9.13,19.47,5.48,22.51-28,9.13-28.59,6.09-5.48-18.26-6.7-20.69S142.3,408.66,146,402c2.69-4.92,5.05-50,6.1-73.53a38.64,38.64,0,0,1,20.14-32.52C177.86,292.91,184.46,291.28,191.58,293.06Z"/><rect class="cls-2" x="267.97" y="471.1" width="36" height="36"/><circle class="cls-4" cx="285.97" cy="460.1" r="11"/><circle class="cls-10" cx="711.12" cy="56.02" r="54.32"/><path class="cls-1" d="M711,93.11c0,41-24.36,55.29-54.41,55.29s-54.42-14.3-54.42-55.29S656.56,0,656.56,0,711,52.13,711,93.11Z"/><polygon class="cls-11" points="654.58 142.13 655.13 107.84 678.33 65.41 655.22 102.46 655.47 87.04 671.46 56.34 655.54 82.96 655.54 82.96 655.99 55.22 673.1 30.78 656.06 50.86 656.34 0 654.57 67.33 654.72 64.55 637.31 37.91 654.44 69.88 652.82 100.86 652.77 100.03 632.71 72 652.71 102.94 652.5 106.81 652.47 106.87 652.48 107.19 648.37 185.78 653.87 185.78 654.53 145.19 674.48 114.33 654.58 142.13"/><path class="cls-1" d="M842.09,154.37c-13,38.86-40.65,44.7-69.15,35.17s-47.06-30.84-34.06-69.7S820,48.8,820,48.8,855.09,115.5,842.09,154.37Z"/><polygon class="cls-11" points="773.05 182.96 784.46 150.61 819.92 117.73 786.25 145.54 791.38 130.99 816.28 106.95 792.74 127.14 792.74 127.14 801.97 100.98 825.96 83.24 803.42 96.87 819.82 48.73 796.78 112.02 797.8 109.43 789.75 78.65 795.85 114.4 784.48 143.26 784.7 142.46 774.56 109.52 783.72 145.2 782.29 148.81 782.24 148.85 782.16 149.16 753.32 222.38 758.53 224.13 772.04 185.84 800.75 162.9 773.05 182.96"/><path class="cls-1" d="M572,123.1c14.74,38.24-2.85,60.35-30.89,71.16s-55.92,6.21-70.66-32S487.73,55.78,487.73,55.78,557.25,84.86,572,123.1Z"/><polygon class="cls-11" points="537 189.12 525.18 156.92 531.56 108.98 523.33 151.87 518.02 137.39 521.89 102.99 516.61 133.55 516.61 133.55 507.06 107.51 514.24 78.55 505.55 103.42 487.53 55.86 510.09 119.32 509.23 116.67 483.41 98.08 510.88 121.75 520.51 151.24 520.17 150.49 491.37 131.55 521.16 153.22 522.36 156.91 522.35 156.97 522.48 157.26 546.9 232.08 552.03 230.1 538.05 191.99 545.57 156.01 537 189.12"/><path class="cls-12" d="M456.42,448c-3.37,5.38-7.74,5.26-11.69,2.78s-6-6.35-2.59-11.73,14.8-7.74,14.8-7.74S459.8,442.63,456.42,448Z"/><path class="cls-12" d="M858.56,286.81c.62,6.32-2.92,8.9-7.55,9.35s-8.61-1.37-9.23-7.69,7-15.18,7-15.18S857.93,280.49,858.56,286.81Z"/><path class="cls-2" d="M438.49,333.46c-3.37,5.38-7.75,5.25-11.69,2.78s-6-6.36-2.59-11.74,14.8-7.74,14.8-7.74S441.86,328.08,438.49,333.46Z"/></g></g></svg>